# xmcd
#
# Track frame offsets:
#	150
#	12999
#	23496
#	35940
#	40686
#	55888
#	70663
#	84235
#	98315
#	113380
#	128162
#	143765
#	154791
#	175189
#	183383
#	193873
#	205547
#
# Disc length: 2964 seconds
#
# Revision: 0
# Processed by: cddbd v1.5.2PL0 Copyright (c) Steve Scherf et al.
# Submitted via: dBpowerAMP V4.0
#
DISCID=ce0b9211
DTITLE=Big Jim Adam - Rock Island Line
DYEAR=2007
DGENRE=Blues
TTITLE0=Bring It On Home To Me
TTITLE1=Kind Hearted Woman
TTITLE2=Grandma's Hands
TTITLE3=Intro-John Thayer
TTITLE4=John Thayer
TTITLE5=That's The Way It Was
TTITLE6=Feel Good Day
TTITLE7=Alone And Forsaken
TTITLE8=100 Reasons
TTITLE9=Love In Vain
TTITLE10=Need Your Love So Bad
TTITLE11=Stones In My Passway
TTITLE12=There Goes The Blues
TTITLE13=Creole Belle
TTITLE14=Rock Island Line
TTITLE15=Samarian Woman
TTITLE16=Graspin' At The Wind
EXTD=
EXTT0=
EXTT1=
EXTT2=
EXTT3=
EXTT4=
EXTT5=
EXTT6=
EXTT7=
EXTT8=
EXTT9=
EXTT10=
EXTT11=
EXTT12=
EXTT13=
EXTT14=
EXTT15=
EXTT16=
PLAYORDER=
